<svg viewBox="130.97990726429674 28.152 549.6259659969088 554.472" version="1.1" xmlns:xlink="http://www.w3.org/1999/xlink" xmlns="http://www.w3.org/2000/svg" style="max-height: 500px" width="549.6259659969088" height="554.472">
<path d="M4013.65 4632.22 3057.02 4012.73C3047.08 4006.29 3041.08 3995.26 3041.08 3983.42V3699.18C3041.08 3665.38 3078.73 3645.21 3106.87 3663.93L4016.19 4268.81C4033.18 4280.11 4055.26 4280.22 4072.36 4269.09L5003.8 3662.85C5032.03 3644.48 5069.37 3664.73 5069.37 3698.4V3985.39C5069.37 3997.36 5063.24 4008.49 5053.11 4014.88L4074.93 4632.57C4056.18 4644.41 4032.26 4644.27 4013.65 4632.22" transform="matrix(.1,0,0,-.1,0,612)"/>
<path d="M4093.79 4059.94 4102.78 3374.09C4103.37 3329.23 4139.9 3293.17 4184.77 3293.17H4330.58C4377.41 3293.17 4415.37 3331.14 4415.37 3377.97V3907.71C4415.37 3926.74 4405.49 3944.4 4389.27 3954.34L4157.71 4096.28C4129.53 4113.56 4093.36 4093 4093.79 4059.94" transform="matrix(.1,0,0,-.1,0,612)"/>
<path d="M4742.38 3643.02V3243.69C4742.38 3212.45 4717.04 3187.12 4685.8 3187.12H4164.13C4129.61 3187.12 4101.63 3159.13 4101.63 3124.61V2408.59C4101.63 2363.88 4137.88 2327.64 4182.58 2327.64H4339.38C4385.01 2327.64 4422 2364.62 4422 2410.25V2853.14C4422 2866.76 4433.04 2877.8 4446.64 2877.84L4718.17 2878.32C4731.3 2878.34 4741.96 2867.71 4741.97 2854.59L4742.38 2410.36C4742.38 2364.67 4779.41 2327.64 4825.09 2327.64H4995.44C5041.05 2327.64 5077.93 2364.79 5077.59 2410.39L5069.67 3469.27C5069.48 3494.45 5056.45 3517.8 5035.11 3531.17L4803.05 3676.6C4776.65 3693.14 4742.38 3674.17 4742.38 3643.02" transform="matrix(.1,0,0,-.1,0,612)"/>
<path d="M4010.91 2771.76C4011.01 2770.76 4011.01 2769.86 4011.01 2768.86 4011.01 2525.16 3793.91 2327.66 3526.11 2327.66 3319.31 2327.66 3142.81 2445.36 3073.01 2611.16 3052.41 2660.06 3041.11 2713.26 3041.11 2768.86V2906.29C3041.11 2918.59 3051.08 2928.56 3063.38 2928.56H3341.94C3353.96 2928.56 3363.71 2918.81 3363.71 2906.79V2813.46C3363.71 2724.36 3437.41 2652.06 3528.31 2652.06 3619.21 2652.06 3692.91 2724.36 3692.91 2813.46V3578.16L3118.08 3178.39C3085.59 3155.8 3041.11 3179.04 3041.11 3218.61V3494.49C3041.11 3506.76 3047.32 3518.19 3057.61 3524.86L3936.4 4094.81C3963.94 4112.67 4000.36 4093.07 4000.62 4060.25L4011.01 2771.76" transform="matrix(.1,0,0,-.1,0,612)"/>
<path d="M6725.75 3060C6725.75 1597.59 5530.53 412.07 4056.15 412.07 2581.78 412.07 1386.56 1597.59 1386.56 3060 1386.56 4522.41 2581.78 5707.93 4056.15 5707.93 5530.53 5707.93 6725.75 4522.41 6725.75 3060Z" stroke="#000000" fill="none" stroke-linejoin="miter" stroke-miterlimit="10" stroke-linecap="butt" stroke-width="40" transform="matrix(.1,0,0,-.1,0,612)"/>
<path d="M6612.78 3059.45C6612.78 1651.82 5467.12 510.707 4053.89 510.707 2640.64 510.707 1494.98 1651.82 1494.98 3059.45 1494.98 4467.08 2640.64 5608.19 4053.89 5608.19 5467.12 5608.19 6612.78 4467.08 6612.78 3059.45Z" stroke="#000000" fill="none" stroke-linejoin="miter" stroke-miterlimit="10" stroke-linecap="butt" stroke-width="60" transform="matrix(.1,0,0,-.1,0,612)"/>
<path d="M2885.5 1608.54C2885.5 1617.87 2882.51 1624.87 2876.54 1629.54 2870.56 1634.2 2862.26 1636.54 2851.63 1636.54H2808.78V1580.26H2852.46C2863.1 1580.26 2871.27 1582.78 2876.96 1587.82 2882.65 1592.86 2885.5 1599.58 2885.5 1607.97ZM2884.66 1479.46 2842.66 1542.18H2808.78V1479.46H2765.66V1675.45H2855.26C2878.59 1675.45 2896.75 1669.76 2909.72 1658.37 2922.69 1646.99 2929.18 1631.12 2929.18 1610.78V1610.22C2929.18 1594.35 2925.3 1581.42 2917.56 1571.44 2909.81 1561.45 2899.68 1554.13 2887.18 1549.46L2935.06 1479.46" transform="matrix(.1,0,0,-.1,0,612)"/>
<path d="M3036.31 1479.46V1675.46H3183.87V1637.1H3078.87V1597.34H3171.27V1558.98H3078.87V1517.82H3185.27V1479.46" transform="matrix(.1,0,0,-.1,0,612)"/>
<path d="M3380.04 1625.05 3353.99 1561.5H3406.07ZM3439.39 1479.45 3421.47 1523.42H3338.59L3320.68 1479.45H3276.71L3360.71 1676.86H3400.47L3484.47 1479.45" transform="matrix(.1,0,0,-.1,0,612)"/>
<path d="M3580.01 1479.46V1675.46H3623.13V1518.38H3720.85V1479.46" transform="matrix(.1,0,0,-.1,0,612)"/>
<path d="M3971.72 1479.46V1675.46H4119.29V1637.1H4014.29V1597.34H4106.68V1558.98H4014.29V1517.82H4120.68V1479.46" transform="matrix(.1,0,0,-.1,0,612)"/>
<path d="M4363.47 1511.52C4359.94 1503.96 4355.03 1497.61 4348.73 1492.48 4342.43 1487.34 4334.9 1483.42 4326.16 1480.71 4317.41 1478.01 4307.72 1476.66 4297.07 1476.66 4282.14 1476.66 4267.49 1479.23 4253.12 1484.36 4238.74 1489.48 4225.68 1497.38 4213.92 1508.02L4239.4 1538.54C4248.36 1531.26 4257.55 1525.48 4266.98 1521.18 4276.4 1516.88 4286.72 1514.73 4297.91 1514.73 4306.88 1514.73 4313.83 1516.37 4318.78 1519.64 4323.72 1522.91 4326.19 1527.43 4326.19 1533.21V1533.78C4326.19 1536.57 4325.68 1539.05 4324.65 1541.2 4323.62 1543.35 4321.65 1545.35 4318.75 1547.21 4315.85 1549.07 4311.83 1550.95 4306.68 1552.82 4301.54 1554.68 4294.85 1556.64 4286.61 1558.7 4276.69 1561.12 4267.71 1563.82 4259.66 1566.82 4251.6 1569.8 4244.78 1573.48 4239.16 1577.88 4233.55 1582.26 4229.2 1587.71 4226.11 1594.26 4223.02 1600.79 4221.48 1608.91 4221.48 1618.62V1619.18C4221.48 1628.14 4223.15 1636.21 4226.49 1643.39 4229.82 1650.57 4234.51 1656.79 4240.53 1662.02 4246.56 1667.23 4253.75 1671.26 4262.12 1674.05 4270.49 1676.86 4279.72 1678.26 4289.8 1678.26 4304.17 1678.26 4317.38 1676.11 4329.42 1671.82 4341.46 1667.53 4352.52 1661.36 4362.6 1653.34L4340.2 1620.86C4331.42 1626.82 4322.84 1631.54 4314.44 1635 4306.04 1638.45 4297.64 1640.18 4289.24 1640.18 4280.83 1640.18 4274.53 1638.54 4270.34 1635.28 4266.14 1632.01 4264.04 1627.96 4264.04 1623.1V1622.54C4264.04 1619.36 4264.64 1616.61 4265.86 1614.28 4267.08 1611.94 4269.27 1609.84 4272.46 1607.98 4275.64 1606.11 4279.99 1604.34 4285.51 1602.66 4291.04 1600.98 4298 1599.02 4306.43 1596.78 4316.35 1594.17 4325.19 1591.23 4332.96 1587.96 4340.73 1584.69 4347.28 1580.77 4352.61 1576.2 4357.94 1571.63 4361.98 1566.26 4364.68 1560.1 4367.4 1553.94 4368.75 1546.55 4368.75 1537.98V1537.42C4368.75 1527.71 4367 1519.07 4363.47 1511.52" transform="matrix(.1,0,0,-.1,0,612)"/>
<path d="M4560.5 1635.7V1479.46H4517.38V1635.7H4457.75V1675.46H4620.15V1635.7" transform="matrix(.1,0,0,-.1,0,612)"/>
<path d="M4781.59 1625.05 4755.55 1561.5H4807.63ZM4840.96 1479.45 4823.04 1523.42H4740.15L4722.23 1479.45H4678.27L4762.27 1676.86H4802.03L4886.03 1479.45" transform="matrix(.1,0,0,-.1,0,612)"/>
<path d="M5046.91 1635.7V1479.46H5003.79V1635.7H4944.16V1675.46H5106.56V1635.7" transform="matrix(.1,0,0,-.1,0,612)"/>
<path d="M5203.32 1479.46V1675.46H5350.89V1637.1H5245.89V1597.34H5338.28V1558.98H5245.89V1517.82H5352.28V1479.46" transform="matrix(.1,0,0,-.1,0,612)"/>
<path d="M2940.68 1862.04C2936.23 1850.45 2930 1840.77 2922 1833 2913.96 1825.22 2904.29 1819.43 2892.95 1815.6 2881.61 1811.79 2869.14 1809.87 2855.57 1809.87 2835.36 1809.87 2818.38 1813.69 2804.7 1821.35 2791.02 1828.98 2779.72 1838.11 2770.84 1848.72L2806.73 1888.68C2814.14 1880.55 2821.59 1874.19 2829.13 1869.63 2836.64 1865.06 2844.96 1862.78 2854.09 1862.78 2864.95 1862.78 2873.45 1866.17 2879.63 1872.96 2885.79 1879.74 2888.86 1890.65 2888.86 1905.7V2072.58H2947.34V1903.11C2947.34 1887.32 2945.11 1873.63 2940.68 1862.04" transform="matrix(.1,0,0,-.1,0,612)"/>
<path d="M3136.78 2005.98 3102.37 1921.99H3171.18ZM3215.22 1813.58 3191.54 1871.66H3082.01L3058.33 1813.58H3000.25L3111.24 2074.43H3163.79L3274.79 1813.58" transform="matrix(.1,0,0,-.1,0,612)"/>
<path d="M3534.51 1813.57V1982.66L3461.63 1872.04H3460.14L3388 1981.55V1813.57H3331.76V2072.57H3393.18L3461.26 1963.05 3529.33 2072.57H3590.76V1813.57" transform="matrix(.1,0,0,-.1,0,612)"/>
<path d="M3669.94 1813.57V2072.57H3864.92V2021.88H3726.17V1969.34H3848.28V1918.65H3726.17V1864.27H3866.78V1813.57" transform="matrix(.1,0,0,-.1,0,612)"/>
<path d="M4115.1 1855.94C4110.43 1845.95 4103.95 1837.56 4095.61 1830.78 4087.27 1824 4077.33 1818.81 4065.78 1815.24 4054.22 1811.67 4041.43 1809.88 4027.37 1809.88 4007.62 1809.88 3988.26 1813.27 3969.27 1820.05 3950.28 1826.83 3933.01 1837.26 3917.47 1851.32L3951.14 1891.64C3962.98 1882.02 3975.13 1874.38 3987.58 1868.7 4000.04 1863.03 4013.67 1860.2 4028.48 1860.2 4040.31 1860.2 4049.49 1862.36 4056.04 1866.67 4062.56 1870.99 4065.84 1876.97 4065.84 1884.61V1885.35C4065.84 1889.06 4065.16 1892.33 4063.79 1895.16 4062.42 1897.99 4059.83 1900.65 4056 1903.12 4052.17 1905.58 4046.86 1908.05 4040.06 1910.52 4033.25 1912.98 4024.42 1915.57 4013.54 1918.28 4000.42 1921.49 3988.56 1925.07 3977.91 1929.02 3967.28 1932.96 3958.25 1937.83 3950.84 1943.64 3943.41 1949.43 3937.66 1956.64 3933.59 1965.28 3929.5 1973.91 3927.46 1984.64 3927.46 1997.46V1998.21C3927.46 2010.05 3929.67 2020.72 3934.07 2030.21 3938.49 2039.7 3944.67 2047.91 3952.64 2054.82 3960.61 2061.72 3970.12 2067.02 3981.17 2070.73 3992.23 2074.43 4004.42 2076.27 4017.74 2076.27 4036.73 2076.27 4054.18 2073.44 4070.1 2067.77 4086 2062.09 4100.61 2053.95 4113.93 2043.34L4084.34 2000.42C4072.74 2008.32 4061.39 2014.54 4050.3 2019.11 4039.2 2023.67 4028.11 2025.96 4016.99 2025.96 4005.9 2025.96 3997.58 2023.79 3992.03 2019.48 3986.48 2015.16 3983.7 2009.8 3983.7 2003.39V2002.65C3983.7 1998.45 3984.5 1994.82 3986.12 1991.73 3987.72 1988.65 3990.63 1985.87 3994.83 1983.41 3999.04 1980.94 4004.79 1978.6 4012.08 1976.38 4019.38 1974.15 4028.59 1971.57 4039.73 1968.61 4052.81 1965.15 4064.51 1961.26 4074.77 1956.96 4085.04 1952.63 4093.69 1947.45 4100.74 1941.41 4107.8 1935.36 4113.11 1928.27 4116.7 1920.14 4120.28 1911.99 4122.07 1902.25 4122.07 1890.91V1890.17C4122.07 1877.34 4119.75 1865.93 4115.1 1855.94" transform="matrix(.1,0,0,-.1,0,612)"/>
<path d="M4478.75 1813.57V1917.54H4373.67V1813.57H4316.7V2072.57H4373.67V1970.09H4478.75V2072.57H4535.72V1813.57" transform="matrix(.1,0,0,-.1,0,612)"/>
<path d="M4729.24 2005.98 4694.83 1921.99H4763.65ZM4807.68 1813.58 4784.01 1871.66H4674.49L4650.8 1813.58H4592.72L4703.71 2074.43H4756.25L4867.25 1813.58" transform="matrix(.1,0,0,-.1,0,612)"/>
<path d="M4924.24 1813.57V2072.57H4981.21V1865H5110.33V1813.57" transform="matrix(.1,0,0,-.1,0,612)"/>
<path d="M5170.27 1813.57V2072.57H5227.24V1865H5356.38V1813.57" transform="matrix(.1,0,0,-.1,0,612)"/>
</svg>